<svg width="193" height="108" viewBox="0 0 193 108" fill="none" xmlns="http://www.w3.org/2000/svg">
<path d="M21.92 68H32.6V68.76H30.4V95.24H32.6V96H20.4V95.24H22.6V70.24H22.44L16.44 96H11.44L4.4 70.12H4.24V95.24H6.44V96H1V95.24H3.2V68.76H1V68H11.8L17.12 88.6L21.92 68ZM39.8738 74.2C38.4604 74.2 37.4471 73.84 36.8338 73.12C36.2471 72.4 35.9538 71.5067 35.9538 70.44C35.9538 69.3733 36.2738 68.4933 36.9138 67.8C37.5804 67.1067 38.5804 66.76 39.9138 66.76C41.2471 66.76 42.2604 67.08 42.9538 67.72C43.6471 68.3333 43.9938 69.2267 43.9938 70.4C43.9938 71.5467 43.6604 72.4667 42.9938 73.16C42.3271 73.8533 41.2871 74.2 39.8738 74.2ZM33.8338 76.96H43.6338V95.28H45.8738V96H33.9938V95.28H36.1938V77.68H33.8338V76.96ZM46.7691 76.96H56.4091V80.64C56.8357 79.4133 57.4891 78.4267 58.3691 77.68C59.2491 76.9333 60.5824 76.56 62.3691 76.56C66.5024 76.56 68.5691 78.7867 68.5691 83.24V95.28H70.8091V96H59.4891V95.28H61.1291V82.28C61.1291 80.68 61.0224 79.6533 60.8091 79.2C60.5957 78.72 60.2091 78.48 59.6491 78.48C58.7957 78.48 58.0357 79.04 57.3691 80.16C56.7291 81.28 56.4091 82.64 56.4091 84.24V95.28H58.1291V96H46.7691V95.28H48.9691V77.68H46.7691V76.96ZM77.2175 74.2C75.8042 74.2 74.7908 73.84 74.1775 73.12C73.5908 72.4 73.2975 71.5067 73.2975 70.44C73.2975 69.3733 73.6175 68.4933 74.2575 67.8C74.9242 67.1067 75.9242 66.76 77.2575 66.76C78.5908 66.76 79.6042 67.08 80.2975 67.72C80.9908 68.3333 81.3375 69.2267 81.3375 70.4C81.3375 71.5467 81.0042 72.4667 80.3375 73.16C79.6708 73.8533 78.6308 74.2 77.2175 74.2ZM71.1775 76.96H80.9775V95.28H83.2175V96H71.3375V95.28H73.5375V77.68H71.1775V76.96ZM91.4203 68H103.18C107.207 68 110.207 68.5867 112.18 69.76C114.154 70.9067 115.14 72.9733 115.14 75.96C115.14 79.2667 113.94 81.5467 111.54 82.8C109.3 83.9467 106.167 84.52 102.14 84.52H101.82V95.24H106.82V96H91.4203V95.24H94.0203V68.76H91.4203V68ZM101.82 68.76V83.76H102.66C104.26 83.76 105.367 83.2133 105.98 82.12C106.594 81.0267 106.9 79.2533 106.9 76.8V74.88C106.9 72.6133 106.607 71.0267 106.02 70.12C105.46 69.2133 104.42 68.76 102.9 68.76H101.82ZM129.932 78.08C128.945 78.08 128.079 78.72 127.332 80C126.585 81.28 126.212 82.8 126.212 84.56V95.28H129.052V96H116.572V95.28H118.772V77.68H116.572V76.96H126.212V80.8C126.559 79.44 127.225 78.4 128.212 77.68C129.199 76.9333 130.319 76.56 131.572 76.56C132.825 76.56 133.839 76.92 134.612 77.64C135.412 78.3333 135.812 79.3333 135.812 80.64C135.812 81.92 135.519 82.9067 134.932 83.6C134.345 84.2933 133.439 84.64 132.212 84.64C131.012 84.64 130.119 84.24 129.532 83.44C128.972 82.64 128.905 81.5333 129.332 80.12H130.772C131.439 78.76 131.159 78.08 129.932 78.08ZM142.257 74.2C140.843 74.2 139.83 73.84 139.217 73.12C138.63 72.4 138.337 71.5067 138.337 70.44C138.337 69.3733 138.657 68.4933 139.297 67.8C139.963 67.1067 140.963 66.76 142.297 66.76C143.63 66.76 144.643 67.08 145.337 67.72C146.03 68.3333 146.377 69.2267 146.377 70.4C146.377 71.5467 146.043 72.4667 145.377 73.16C144.71 73.8533 143.67 74.2 142.257 74.2ZM136.217 76.96H146.017V95.28H148.257V96H136.377V95.28H138.577V77.68H136.217V76.96ZM157.192 87.72C157.192 90.52 157.339 92.3867 157.632 93.32C157.925 94.2267 158.459 94.68 159.232 94.68C160.032 94.68 160.712 94.3333 161.272 93.64C161.859 92.9467 162.152 91.92 162.152 90.56V81.84C162.152 80.6933 161.925 79.72 161.472 78.92C161.019 78.12 160.352 77.72 159.472 77.72C158.592 77.72 157.992 78.3067 157.672 79.48C157.352 80.6533 157.192 82.7067 157.192 85.64V87.72ZM162.672 96L162.232 93.2C161.325 95.3333 159.485 96.4 156.712 96.4C154.419 96.4 152.632 95.5733 151.352 93.92C150.099 92.2667 149.472 89.8 149.472 86.52C149.472 79.88 152.112 76.56 157.392 76.56C159.739 76.56 161.285 77.2133 162.032 78.52V66.72H159.592V66H169.592V95.28H171.552V96H162.672ZM183.108 96.4C179.668 96.4 177.081 95.52 175.348 93.76C173.641 91.9733 172.788 89.5067 172.788 86.36C172.788 83.1867 173.748 80.76 175.668 79.08C177.614 77.4 180.081 76.56 183.068 76.56C189.121 76.56 192.028 79.6 191.788 85.68H180.508V87.24C180.508 89.8533 180.841 91.8267 181.508 93.16C182.174 94.4933 183.334 95.16 184.988 95.16C188.081 95.16 190.108 93.5067 191.068 90.2L191.788 90.32C191.281 92.24 190.361 93.7333 189.028 94.8C187.721 95.8667 185.748 96.4 183.108 96.4ZM180.548 84.88H184.668V82.92C184.668 80.76 184.534 79.2933 184.268 78.52C184.028 77.72 183.521 77.32 182.747 77.32C182.001 77.32 181.441 77.7467 181.068 78.6C180.721 79.4267 180.548 80.8667 180.548 82.92V84.88Z" fill="black"/>
<path d="M109.703 48.5625V53.1875C109.703 53.4942 109.596 53.7883 109.406 54.0051C109.215 54.2219 108.957 54.3438 108.688 54.3438C108.418 54.3438 108.16 54.2219 107.969 54.0051C107.779 53.7883 107.672 53.4942 107.672 53.1875V48.5625C107.672 45.1893 106.495 41.9542 104.4 39.569C102.305 37.1838 99.463 35.8438 96.5 35.8438C93.537 35.8438 90.6954 37.1838 88.6003 39.569C86.5052 41.9542 85.3281 45.1893 85.3281 48.5625V53.1875C85.3281 53.4942 85.2211 53.7883 85.0307 54.0051C84.8402 54.2219 84.5819 54.3438 84.3125 54.3438C84.0431 54.3438 83.7848 54.2219 83.5943 54.0051C83.4039 53.7883 83.2969 53.4942 83.2969 53.1875V48.5625C83.2969 44.576 84.6879 40.7527 87.164 37.9338C89.64 35.1149 92.9983 33.5312 96.5 33.5312C100.002 33.5312 103.36 35.1149 105.836 37.9338C108.312 40.7527 109.703 44.576 109.703 48.5625ZM96.5 24.2812C90.8453 24.2881 85.4239 26.8485 81.4254 31.4007C77.4269 35.9528 75.1779 42.1248 75.1719 48.5625V53.1875C75.1719 53.4942 75.2789 53.7883 75.4693 54.0051C75.6598 54.2219 75.9181 54.3438 76.1875 54.3438C76.4569 54.3438 76.7152 54.2219 76.9057 54.0051C77.0961 53.7883 77.2031 53.4942 77.2031 53.1875V48.5625C77.2031 42.736 79.2362 37.1482 82.855 33.0282C86.4739 28.9083 91.3822 26.5938 96.5 26.5938C101.618 26.5938 106.526 28.9083 110.145 33.0282C113.764 37.1482 115.797 42.736 115.797 48.5625V53.1875C115.797 53.4942 115.904 53.7883 116.094 54.0051C116.285 54.2219 116.543 54.3438 116.812 54.3438C117.082 54.3438 117.34 54.2219 117.531 54.0051C117.721 53.7883 117.828 53.4942 117.828 53.1875V48.5625C117.822 42.1248 115.573 35.9528 111.575 31.4007C107.576 26.8485 102.155 24.2881 96.5 24.2812ZM96.5 15.0312C88.6912 15.0412 81.2048 18.5771 75.6831 24.8633C70.1615 31.1495 67.0556 39.6725 67.0469 48.5625V53.1875C67.0469 53.4942 67.1539 53.7883 67.3443 54.0051C67.5348 54.2219 67.7931 54.3438 68.0625 54.3438C68.3319 54.3438 68.5902 54.2219 68.7807 54.0051C68.9711 53.7883 69.0781 53.4942 69.0781 53.1875V48.5625C69.0781 40.2828 71.9672 32.3422 77.1098 26.4875C82.2524 20.6329 89.2273 17.3438 96.5 17.3438C103.773 17.3438 110.748 20.6329 115.89 26.4875C121.033 32.3422 123.922 40.2828 123.922 48.5625V53.1875C123.922 53.4942 124.029 53.7883 124.219 54.0051C124.41 54.2219 124.668 54.3438 124.938 54.3438C125.207 54.3438 125.465 54.2219 125.656 54.0051C125.846 53.7883 125.953 53.4942 125.953 53.1875V48.5625C125.944 39.6725 122.838 31.1495 117.317 24.8633C111.795 18.5771 104.309 15.0412 96.5 15.0312Z" fill="black"/>
</svg>
